<svg xmlns="http://www.w3.org/2000/svg" width="1em" height="1em" viewBox="0 0 72 72"><path fill="#d0cfce" d="M24 18h36v7H24zm0 15h36v7H24zm0 15h36v7H24z"/><path fill="#9b9b9a" d="M12 48h7v7h-7zm0-15h7v7h-7zm0-15h7v7h-7z"/><path fill="none" stroke="#000" stroke-linecap="round" stroke-linejoin="round" stroke-miterlimit="10" stroke-width="2" d="M59 25H25a1 1 0 0 1-1-1v-5a1 1 0 0 1 1-1h34a1 1 0 0 1 1 1v5a1 1 0 0 1-1 1m0 15H25a1 1 0 0 1-1-1v-5a1 1 0 0 1 1-1h34a1 1 0 0 1 1 1v5a1 1 0 0 1-1 1m0 15H25a1 1 0 0 1-1-1v-5a1 1 0 0 1 1-1h34a1 1 0 0 1 1 1v5a1 1 0 0 1-1 1M18 25h-5a1 1 0 0 1-1-1v-5a1 1 0 0 1 1-1h5a1 1 0 0 1 1 1v5a1 1 0 0 1-1 1m0 15h-5a1 1 0 0 1-1-1v-5a1 1 0 0 1 1-1h5a1 1 0 0 1 1 1v5a1 1 0 0 1-1 1m0 15h-5a1 1 0 0 1-1-1v-5a1 1 0 0 1 1-1h5a1 1 0 0 1 1 1v5a1 1 0 0 1-1 1"/></svg>